# Blender v3.0.1 OBJ File: 'table.blend'
# www.blender.org
mtllib table.mtl
o Grid
v -0.800000 0.000000 0.800000
v -0.600000 0.000000 0.800000
v 0.600000 0.000000 0.800000
v 0.800000 0.000000 0.800000
v -0.800000 0.000000 0.600000
v -0.600000 0.000000 0.600000
v 0.600000 0.000000 0.600000
v 0.800000 0.000000 0.600000
v -0.800000 0.000000 -0.600000
v -0.600000 0.000000 -0.600000
v 0.600000 0.000000 -0.600000
v 0.800000 0.000000 -0.600000
v -0.800000 0.000000 -0.800000
v -0.600000 0.000000 -0.800000
v 0.600000 0.000000 -0.800000
v 0.800000 0.000000 -0.800000
v -0.600000 1.316270 0.800000
v -0.800000 1.316270 0.800000
v 0.800000 1.316270 0.800000
v 0.600000 1.316270 0.800000
v -0.800000 1.316270 0.600000
v -0.600000 1.316270 0.600000
v 0.600000 1.316270 0.600000
v 0.800000 1.316270 0.600000
v -0.600000 1.316270 -0.600000
v -0.800000 1.316270 -0.600000
v 0.800000 1.316270 -0.600000
v 0.600000 1.316270 -0.600000
v -0.800000 1.316270 -0.800000
v -0.600000 1.316270 -0.800000
v 0.600000 1.316270 -0.800000
v 0.800000 1.316270 -0.800000
v -1.000000 1.316270 1.000000
v 1.000000 1.316270 1.000000
v -1.000000 1.316270 -1.000000
v 1.000000 1.316270 -1.000000
v -1.380077 1.396869 -1.380077
v -1.380077 1.396869 1.380077
v 1.380077 1.396869 1.380077
v 1.380077 1.396869 -1.380077
v -1.380077 1.490498 -1.380077
v -1.380077 1.490498 1.380077
v 1.380077 1.490498 1.380077
v 1.380077 1.490498 -1.380077
vt 0.100000 0.100000
vt 0.100000 0.200000
vt 0.200000 0.200000
vt 0.200000 0.100000
vt 0.800000 0.100000
vt 0.800000 0.200000
vt 0.900000 0.200000
vt 0.900000 0.100000
vt 0.100000 0.800000
vt 0.100000 0.900000
vt 0.200000 0.900000
vt 0.200000 0.800000
vt 0.800000 0.800000
vt 0.800000 0.900000
vt 0.900000 0.900000
vt 0.900000 0.800000
vt 0.100000 0.100000
vt 0.200000 0.100000
vt 0.200000 0.200000
vt 0.100000 0.200000
vt 0.800000 0.100000
vt 0.900000 0.100000
vt 0.900000 0.200000
vt 0.800000 0.200000
vt 0.100000 0.800000
vt 0.200000 0.800000
vt 0.200000 0.900000
vt 0.100000 0.900000
vt 0.800000 0.800000
vt 0.900000 0.800000
vt 0.900000 0.900000
vt 0.800000 0.900000
vt 0.000000 0.000000
vt 0.000000 1.000000
vt 1.000000 1.000000
vt 1.000000 0.000000
vt 1.000000 1.000000
vt 0.000000 1.000000
vt 0.000000 1.000000
vt 1.000000 1.000000
vt 1.000000 0.000000
vt 0.000000 0.000000
vt 0.000000 0.000000
vt 1.000000 0.000000
vn -0.5773 -0.5773 0.5773
vn -0.5773 -0.5773 -0.5773
vn 0.5773 -0.5773 -0.5773
vn 0.5773 -0.5773 0.5773
vn -0.5773 0.5773 0.5773
vn 0.5773 0.5773 0.5773
vn 0.5773 0.5773 -0.5773
vn -0.5773 0.5773 -0.5773
vn -0.0785 -0.9938 0.0785
vn -0.0785 -0.9938 -0.0785
vn 0.0785 -0.9938 -0.0785
vn 0.0785 -0.9938 0.0785
vn 0.5970 -0.5358 -0.5970
vn -0.5970 -0.5358 -0.5970
vn 0.5970 -0.5358 0.5970
vn -0.5970 -0.5358 0.5970
usemtl None
s 1
f 1/1/1 5/2/2 6/3/3 2/4/4
f 3/5/1 7/6/2 8/7/3 4/8/4
f 9/9/1 13/10/2 14/11/3 10/12/4
f 11/13/1 15/14/2 16/15/3 12/16/4
f 18/17/5 17/18/6 22/19/7 21/20/8
f 20/21/5 19/22/6 24/23/7 23/24/8
f 26/25/5 25/26/6 30/27/7 29/28/8
f 28/29/5 27/30/6 32/31/7 31/32/8
f 12/16/4 16/15/3 32/31/7 27/30/6
f 8/7/3 7/6/2 23/24/8 24/23/7
f 1/1/1 2/4/4 17/18/6 18/17/5
f 16/15/3 15/14/2 31/32/8 32/31/7
f 9/9/1 10/12/4 25/26/6 26/25/5
f 3/5/1 4/8/4 19/22/6 20/21/5
f 11/13/1 12/16/4 27/30/6 28/29/5
f 5/2/2 1/1/1 18/17/5 21/20/8
f 13/10/2 9/9/1 26/25/5 29/28/8
f 2/4/4 6/3/3 22/19/7 17/18/6
f 10/12/4 14/11/3 30/27/7 25/26/6
f 6/3/3 5/2/2 21/20/8 22/19/7
f 14/11/3 13/10/2 29/28/8 30/27/7
f 7/6/2 3/5/1 20/21/5 23/24/8
f 15/14/2 11/13/1 28/29/5 31/32/8
f 4/8/4 8/7/3 24/23/7 19/22/6
f 33/33/9 35/34/10 36/35/11 34/36/12
f 40/37/13 37/38/14 41/39/8 44/40/7
f 33/33/9 34/36/12 39/41/15 38/42/16
f 34/36/12 36/35/11 40/37/13 39/41/15
f 35/34/10 33/33/9 38/42/16 37/38/14
f 36/35/11 35/34/10 37/38/14 40/37/13
f 42/43/5 43/44/6 44/40/7 41/39/8
f 38/42/16 39/41/15 43/44/6 42/43/5
f 39/41/15 40/37/13 44/40/7 43/44/6
f 37/38/14 38/42/16 42/43/5 41/39/8
